<svg width="37.000000" height="23.000000" viewBox="0 0 37 23" fill="none" xmlns="http://www.w3.org/2000/svg" xmlns:xlink="http://www.w3.org/1999/xlink">
	<desc>
			Created with Pixso.
	</desc>
	<defs/>
	<path id="Vector" d="M0.29 1.58C-0.29 1.58 -0.75 1.11 -0.75 0.54C-0.75 -0.04 -0.29 -0.5 0.29 -0.5L35.7 -0.5C36.28 -0.5 36.75 -0.04 36.75 0.54C36.75 1.11 36.28 1.58 35.7 1.58L0.29 1.58ZM0.29 12C-0.29 12 -0.75 11.53 -0.75 10.95C-0.75 10.38 -0.29 9.91 0.29 9.91L35.7 9.91C36.28 9.91 36.75 10.38 36.75 10.95C36.75 11.53 36.28 12 35.7 12L0.29 12ZM0.29 22.41C-0.29 22.41 -0.75 21.95 -0.75 21.37C-0.75 20.79 -0.29 20.33 0.29 20.33L35.7 20.33C36.28 20.33 36.75 20.79 36.75 21.37C36.75 21.95 36.28 22.41 35.7 22.41L0.29 22.41Z" fill="#FFFFFF" fill-opacity="1.000000" fill-rule="nonzero"/>
</svg>
